<svg width="28" height="28" viewBox="0 0 28 28" fill="none" xmlns="http://www.w3.org/2000/svg">
<path d="M23.625 11.3748H11.1661L22.9688 8.25874C23.0805 8.2293 23.1853 8.17803 23.2771 8.10789C23.3689 8.03774 23.4459 7.95011 23.5036 7.85005C23.5614 7.75 23.5988 7.63949 23.6136 7.52491C23.6284 7.41033 23.6204 7.29395 23.59 7.18249L22.6975 3.90124C22.5747 3.45979 22.2829 3.0845 21.8853 2.85665C21.4878 2.6288 21.0164 2.56674 20.5734 2.6839L3.91673 7.08077C3.69494 7.13834 3.48688 7.23958 3.3047 7.37856C3.12253 7.51753 2.96991 7.69146 2.85579 7.89015C2.74103 8.0864 2.66688 8.30371 2.63776 8.52918C2.60863 8.75465 2.62513 8.98368 2.68626 9.20265L3.50001 12.2017C3.50001 12.217 3.50001 12.2334 3.50001 12.2498V21.8748C3.50001 22.339 3.68438 22.7841 4.01257 23.1123C4.34076 23.4405 4.78588 23.6248 5.25001 23.6248H22.75C23.2141 23.6248 23.6593 23.4405 23.9874 23.1123C24.3156 22.7841 24.5 22.339 24.5 21.8748V12.2498C24.5 12.0178 24.4078 11.7952 24.2437 11.6311C24.0796 11.467 23.8571 11.3748 23.625 11.3748ZM21.0175 4.37483L21.6738 6.78874L19.1997 7.44499L16.1241 5.66874L21.0175 4.37483ZM13.7233 6.29983L16.7989 8.07608L12.7586 9.14249L9.68298 7.36843L13.7233 6.29983ZM5.03891 11.1801L4.38266 8.76515L7.2811 7.99952L10.3567 9.77796L5.03891 11.1801ZM22.75 21.8748H5.25001V13.1248H22.75V21.8748Z" fill="#007AFF"/>
</svg>
