<svg width="28" height="28" viewBox="0 0 28 28" fill="none" xmlns="http://www.w3.org/2000/svg">
<path d="M18.1191 9.88089C18.2004 9.96216 18.265 10.0587 18.309 10.1649C18.353 10.2711 18.3757 10.385 18.3757 10.5C18.3757 10.6149 18.353 10.7288 18.309 10.835C18.265 10.9413 18.2004 11.0378 18.1191 11.119L11.1191 18.119C11.0378 18.2003 10.9413 18.2648 10.835 18.3088C10.7288 18.3528 10.615 18.3754 10.5 18.3754C10.385 18.3754 10.2712 18.3528 10.165 18.3088C10.0588 18.2648 9.96224 18.2003 9.88094 18.119C9.79965 18.0377 9.73516 17.9412 9.69116 17.835C9.64717 17.7288 9.62452 17.6149 9.62452 17.5C9.62452 17.385 9.64717 17.2711 9.69116 17.1649C9.73516 17.0587 9.79965 16.9622 9.88094 16.8809L16.8809 9.88089C16.9622 9.79954 17.0587 9.735 17.1649 9.69096C17.2712 9.64693 17.385 9.62427 17.5 9.62427C17.615 9.62427 17.7289 9.64693 17.8351 9.69096C17.9413 9.735 18.0378 9.79954 18.1191 9.88089ZM23.5813 4.4187C23.0125 3.84988 22.3372 3.39866 21.5941 3.09081C20.8509 2.78296 20.0544 2.62451 19.25 2.62451C18.4456 2.62451 17.6491 2.78296 16.9059 3.09081C16.1628 3.39866 15.4875 3.84988 14.9188 4.4187L11.6309 7.70542C11.4668 7.86961 11.3745 8.09229 11.3745 8.32449C11.3745 8.55668 11.4668 8.77936 11.6309 8.94355C11.7951 9.10773 12.0178 9.19997 12.25 9.19997C12.4822 9.19997 12.7049 9.10773 12.8691 8.94355L16.1569 5.6623C16.9803 4.85692 18.0882 4.40877 19.24 4.41511C20.3919 4.42145 21.4947 4.88178 22.3093 5.69618C23.1238 6.51058 23.5843 7.61336 23.5909 8.76518C23.5974 9.917 23.1495 11.0249 22.3442 11.8485L19.0553 15.1364C18.8911 15.3004 18.7988 15.5229 18.7987 15.755C18.7986 15.9871 18.8907 16.2098 19.0548 16.3739C19.2188 16.5381 19.4414 16.6304 19.6734 16.6305C19.9055 16.6306 20.1282 16.5385 20.2923 16.3745L23.5813 13.0812C24.1501 12.5124 24.6013 11.8372 24.9092 11.094C25.217 10.3509 25.3754 9.55435 25.3754 8.74995C25.3754 7.94555 25.217 7.14903 24.9092 6.40587C24.6013 5.66271 24.1501 4.98747 23.5813 4.4187ZM15.1309 19.0553L11.8431 22.3431C11.4385 22.7568 10.9559 23.0861 10.4231 23.312C9.89039 23.5378 9.31812 23.6558 8.73948 23.659C8.16083 23.6621 7.58731 23.5505 7.0521 23.3305C6.5169 23.1105 6.03065 22.7865 5.62152 22.3773C5.21239 21.9681 4.88849 21.4818 4.6686 20.9466C4.4487 20.4114 4.33717 19.8378 4.34045 19.2592C4.34374 18.6805 4.46179 18.1083 4.68776 17.5756C4.91372 17.0429 5.24312 16.5603 5.65688 16.1557L8.9436 12.869C9.10779 12.7048 9.20002 12.4821 9.20002 12.25C9.20002 12.0178 9.10779 11.7951 8.9436 11.6309C8.77941 11.4667 8.55673 11.3745 8.32454 11.3745C8.09234 11.3745 7.86966 11.4667 7.70548 11.6309L4.41876 14.9187C3.27004 16.0674 2.62469 17.6254 2.62469 19.25C2.62469 20.8745 3.27004 22.4325 4.41876 23.5812C5.56748 24.7299 7.12547 25.3753 8.75001 25.3753C10.3745 25.3753 11.9325 24.7299 13.0813 23.5812L16.3691 20.2923C16.5331 20.1281 16.6252 19.9055 16.6251 19.6734C16.625 19.4413 16.5327 19.2188 16.3685 19.0547C16.2043 18.8907 15.9817 18.7986 15.7496 18.7987C15.5175 18.7988 15.295 18.8911 15.1309 19.0553Z" fill="#007AFF"/>
</svg>
