<svg width="24" height="24" viewBox="0 0 24 24" fill="none" xmlns="http://www.w3.org/2000/svg">
<path d="M12 2.25C10.0716 2.25 8.18657 2.82183 6.58319 3.89317C4.97982 4.96451 3.73013 6.48726 2.99218 8.26884C2.25422 10.0504 2.06114 12.0108 2.43735 13.9021C2.81355 15.7934 3.74215 17.5307 5.10571 18.8943C6.46928 20.2579 8.20656 21.1865 10.0979 21.5627C11.9892 21.9389 13.9496 21.7458 15.7312 21.0078C17.5127 20.2699 19.0355 19.0202 20.1068 17.4168C21.1782 15.8134 21.75 13.9284 21.75 12C21.7473 9.41498 20.7192 6.93661 18.8913 5.10872C17.0634 3.28084 14.585 2.25273 12 2.25ZM15.75 15.75H6.75C6.15327 15.75 5.58097 15.5129 5.15901 15.091C4.73706 14.669 4.5 14.0967 4.5 13.5C4.5 12.9033 4.73706 12.331 5.15901 11.909C5.58097 11.4871 6.15327 11.25 6.75 11.25H15.75C15.9489 11.25 16.1397 11.329 16.2803 11.4697C16.421 11.6103 16.5 11.8011 16.5 12C16.5 12.1989 16.421 12.3897 16.2803 12.5303C16.1397 12.671 15.9489 12.75 15.75 12.75H6.75C6.55109 12.75 6.36033 12.829 6.21967 12.9697C6.07902 13.1103 6 13.3011 6 13.5C6 13.6989 6.07902 13.8897 6.21967 14.0303C6.36033 14.171 6.55109 14.25 6.75 14.25H15.75C16.3467 14.25 16.919 14.0129 17.341 13.591C17.763 13.169 18 12.5967 18 12C18 11.4033 17.763 10.831 17.341 10.409C16.919 9.98705 16.3467 9.75 15.75 9.75H9C8.80109 9.75 8.61033 9.67098 8.46967 9.53033C8.32902 9.38968 8.25 9.19891 8.25 9C8.25 8.80109 8.32902 8.61032 8.46967 8.46967C8.61033 8.32902 8.80109 8.25 9 8.25H15.75C16.7446 8.25 17.6984 8.64509 18.4017 9.34835C19.1049 10.0516 19.5 11.0054 19.5 12C19.5 12.9946 19.1049 13.9484 18.4017 14.6517C17.6984 15.3549 16.7446 15.75 15.75 15.75Z" fill="#0779B8"/>
</svg>
