<svg width="28" height="28" viewBox="0 0 28 28" fill="none" xmlns="http://www.w3.org/2000/svg">
<path d="M24.5 7.36098C24.494 6.83439 24.3819 6.3144 24.1703 5.83216C23.9587 5.34992 23.6519 4.91533 23.2684 4.55442C21.7372 3.10192 19.2522 3.15661 17.7318 4.67801L15.6187 6.80317C15.1197 6.34833 14.4645 6.10328 13.7895 6.11896C13.1145 6.13465 12.4714 6.40986 11.994 6.88739L11.0097 7.87176C10.8469 8.03429 10.7179 8.2273 10.6298 8.43974C10.5417 8.65219 10.4964 8.87991 10.4964 9.10989C10.4964 9.33987 10.5417 9.56759 10.6298 9.78003C10.7179 9.99248 10.8469 10.1855 11.0097 10.348L11.2284 10.5733L5.65028 16.1515C5.11336 16.6842 4.72471 17.3478 4.52273 18.0767C4.32074 18.8056 4.31241 19.5746 4.49856 20.3077L3.62356 22.3213C3.50131 22.5978 3.46587 22.9048 3.52192 23.2019C3.57797 23.4989 3.72288 23.772 3.93747 23.9849C4.1852 24.235 4.50301 24.404 4.84888 24.4697C5.19474 24.5353 5.55238 24.4944 5.8745 24.3524L7.79184 23.5157C8.51162 23.6783 9.26088 23.6557 9.96956 23.4501C10.6782 23.2445 11.3232 22.8625 11.8442 22.3399L17.4223 16.7618L17.6476 16.9871C17.9758 17.315 18.4207 17.4992 18.8847 17.4992C19.3486 17.4992 19.7935 17.315 20.1217 16.9871L21.1061 16.0027C21.5844 15.5247 21.8598 14.8805 21.8749 14.2044C21.89 13.5283 21.6436 12.8725 21.187 12.3736L23.3472 10.2004C23.7206 9.82909 24.0152 9.38622 24.2133 8.89831C24.4114 8.4104 24.5089 7.8875 24.5 7.36098ZM10.6093 21.1094C10.2726 21.4468 9.85037 21.6862 9.38791 21.8018C8.92545 21.9174 8.44024 21.9049 7.98434 21.7657C7.78445 21.7041 7.5691 21.7161 7.37731 21.7996L5.39763 22.6636L6.23434 20.7168C6.32116 20.5178 6.33091 20.2936 6.26169 20.0879C6.07296 19.5308 6.07682 18.9264 6.27263 18.3718H13.3437L10.6093 21.1094ZM15.0937 16.625H7.66388L12.4764 11.8125L16.1886 15.5313L15.0937 16.625ZM22.1134 8.96879L19.3386 11.76C19.1746 11.9241 19.0825 12.1466 19.0825 12.3786C19.0825 12.6105 19.1746 12.833 19.3386 12.9971L19.8734 13.5308C19.9548 13.6121 20.0193 13.7086 20.0633 13.8148C20.1074 13.921 20.13 14.0349 20.13 14.1499C20.13 14.2649 20.1074 14.3787 20.0633 14.485C20.0193 14.5912 19.9548 14.6877 19.8734 14.769L18.889 15.7533L12.25 9.10661L13.2343 8.12223C13.3984 7.95826 13.6209 7.86615 13.8529 7.86615C14.0848 7.86615 14.3073 7.95826 14.4714 8.12223L15.0062 8.65708C15.1702 8.82086 15.3924 8.91291 15.6242 8.91301C15.7393 8.91282 15.8532 8.88992 15.9594 8.84562C16.0657 8.80133 16.1621 8.73651 16.2432 8.65489L18.9711 5.91067C19.8253 5.05536 21.2133 5.01598 22.0653 5.82208C22.2781 6.0231 22.4484 6.2648 22.5661 6.53286C22.6838 6.80091 22.7465 7.08986 22.7505 7.38259C22.7545 7.67531 22.6996 7.96586 22.5893 8.23701C22.4789 8.50816 22.3152 8.7544 22.1079 8.96114L22.1134 8.96879Z" fill="#007AFF"/>
</svg>
