<svg width="24" height="24" viewBox="0 0 24 24" fill="none" xmlns="http://www.w3.org/2000/svg">
<path d="M15.75 21C15.75 21.1989 15.671 21.3897 15.5303 21.5303C15.3897 21.671 15.1989 21.75 15 21.75H9.00002C8.80111 21.75 8.61034 21.671 8.46969 21.5303C8.32904 21.3897 8.25002 21.1989 8.25002 21C8.25002 20.8011 8.32904 20.6103 8.46969 20.4697C8.61034 20.329 8.80111 20.25 9.00002 20.25H15C15.1989 20.25 15.3897 20.329 15.5303 20.4697C15.671 20.6103 15.75 20.8011 15.75 21ZM21.3178 5.65499C20.4749 4.00748 19.2092 2.61364 17.6503 1.61624C17.567 1.56303 17.4741 1.52682 17.3767 1.50967C17.2794 1.49252 17.1796 1.49478 17.0832 1.51631C16.9867 1.53785 16.8955 1.57823 16.8147 1.63515C16.7339 1.69207 16.6651 1.7644 16.6124 1.84797C16.5596 1.93155 16.5239 2.02473 16.5073 2.12215C16.4906 2.21958 16.4934 2.31933 16.5155 2.41567C16.5376 2.51201 16.5784 2.60304 16.6358 2.68353C16.6931 2.76402 16.7658 2.83238 16.8497 2.88468C18.1871 3.73546 19.2707 4.93076 19.9866 6.34499C20.0812 6.51593 20.2388 6.64321 20.4258 6.69974C20.6128 6.75628 20.8145 6.73761 20.9879 6.6477C21.1614 6.5578 21.2929 6.40376 21.3545 6.21836C21.4161 6.03296 21.403 5.83083 21.3178 5.65499ZM3.34783 6.74999C3.48523 6.74993 3.61998 6.71213 3.73736 6.64071C3.85474 6.56929 3.95025 6.46699 4.01346 6.34499C4.72933 4.93076 5.81291 3.73546 7.15033 2.88468C7.23419 2.83238 7.30689 2.76402 7.36424 2.68353C7.4216 2.60304 7.46248 2.51201 7.48454 2.41567C7.50659 2.31933 7.50939 2.21958 7.49277 2.12215C7.47615 2.02473 7.44043 1.93155 7.38768 1.84797C7.33493 1.7644 7.26617 1.69207 7.18538 1.63515C7.10458 1.57823 7.01333 1.53785 6.91687 1.51631C6.82041 1.49478 6.72065 1.49252 6.62331 1.50967C6.52598 1.52682 6.433 1.56303 6.34971 1.61624C4.79085 2.61364 3.52514 4.00748 2.68221 5.65499C2.62299 5.76929 2.59419 5.8969 2.59858 6.02556C2.60297 6.15421 2.6404 6.27957 2.70726 6.38957C2.77413 6.49956 2.86818 6.5905 2.98037 6.65363C3.09256 6.71675 3.2191 6.74994 3.34783 6.74999ZM20.7947 16.4944C20.9276 16.7222 20.998 16.9811 20.9989 17.2448C20.9998 17.5086 20.9312 17.7679 20.7999 17.9967C20.6686 18.2255 20.4793 18.4156 20.251 18.5478C20.0228 18.6801 19.7638 18.7498 19.5 18.75H4.50002C4.23641 18.7495 3.9776 18.6795 3.74965 18.5471C3.5217 18.4147 3.33266 18.2246 3.20158 17.9959C3.0705 17.7672 3.002 17.508 3.00299 17.2444C3.00398 16.9808 3.07441 16.7221 3.20721 16.4944C4.05189 15.0366 4.50002 12.9637 4.50002 10.5C4.50002 8.51087 5.29019 6.60321 6.69672 5.19669C8.10324 3.79017 10.0109 2.99999 12 2.99999C13.9891 2.99999 15.8968 3.79017 17.3033 5.19669C18.7098 6.60321 19.5 8.51087 19.5 10.5C19.5 12.9628 19.9481 15.0356 20.7947 16.4944ZM19.5 17.25C18.5025 15.5372 18 13.2666 18 10.5C18 8.90869 17.3679 7.38257 16.2427 6.25735C15.1174 5.13213 13.5913 4.49999 12 4.49999C10.4087 4.49999 8.8826 5.13213 7.75738 6.25735C6.63216 7.38257 6.00002 8.90869 6.00002 10.5C6.00002 13.2675 5.49564 15.5381 4.50002 17.25H19.5Z" fill="#3C3C3C"/>
</svg>
