<svg width="28" height="28" viewBox="0 0 28 28" fill="none" xmlns="http://www.w3.org/2000/svg">
<path d="M22.75 6.125H19.7181L18.2273 3.88938C18.1475 3.76967 18.0393 3.6715 17.9124 3.60358C17.7856 3.53567 17.6439 3.50009 17.5 3.5H10.5C10.3561 3.50009 10.2144 3.53567 10.0876 3.60358C9.96069 3.6715 9.85252 3.76967 9.77266 3.88938L8.28078 6.125H5.25C4.55381 6.125 3.88613 6.40156 3.39384 6.89384C2.90156 7.38613 2.625 8.05381 2.625 8.75V21C2.625 21.6962 2.90156 22.3639 3.39384 22.8562C3.88613 23.3484 4.55381 23.625 5.25 23.625H22.75C23.4462 23.625 24.1139 23.3484 24.6062 22.8562C25.0984 22.3639 25.375 21.6962 25.375 21V8.75C25.375 8.05381 25.0984 7.38613 24.6062 6.89384C24.1139 6.40156 23.4462 6.125 22.75 6.125ZM23.625 21C23.625 21.2321 23.5328 21.4546 23.3687 21.6187C23.2046 21.7828 22.9821 21.875 22.75 21.875H5.25C5.01794 21.875 4.79538 21.7828 4.63128 21.6187C4.46719 21.4546 4.375 21.2321 4.375 21V8.75C4.375 8.51794 4.46719 8.29538 4.63128 8.13128C4.79538 7.96719 5.01794 7.875 5.25 7.875H8.75C8.89409 7.87509 9.03598 7.8396 9.16305 7.77167C9.29013 7.70375 9.39847 7.60549 9.47844 7.48563L10.9681 5.25H17.0308L18.5216 7.48563C18.6015 7.60549 18.7099 7.70375 18.8369 7.77167C18.964 7.8396 19.1059 7.87509 19.25 7.875H22.75C22.9821 7.875 23.2046 7.96719 23.3687 8.13128C23.5328 8.29538 23.625 8.51794 23.625 8.75V21ZM14 9.625C13.0482 9.625 12.1177 9.90725 11.3263 10.4361C10.5349 10.9649 9.91808 11.7165 9.55383 12.5958C9.18958 13.4752 9.09428 14.4428 9.27997 15.3764C9.46566 16.3099 9.92401 17.1674 10.597 17.8405C11.2701 18.5135 12.1276 18.9718 13.0611 19.1575C13.9947 19.3432 14.9623 19.2479 15.8417 18.8837C16.721 18.5194 17.4726 17.9026 18.0014 17.1112C18.5303 16.3198 18.8125 15.3893 18.8125 14.4375C18.8111 13.1616 18.3036 11.9384 17.4014 11.0361C16.4991 10.1339 15.2759 9.62645 14 9.625ZM14 17.5C13.3943 17.5 12.8022 17.3204 12.2986 16.9839C11.7949 16.6474 11.4024 16.1691 11.1706 15.6095C10.9388 15.0499 10.8782 14.4341 10.9963 13.84C11.1145 13.246 11.4062 12.7003 11.8345 12.272C12.2628 11.8437 12.8085 11.552 13.4025 11.4338C13.9966 11.3157 14.6124 11.3763 15.172 11.6081C15.7316 11.8399 16.2099 12.2324 16.5464 12.7361C16.8829 13.2397 17.0625 13.8318 17.0625 14.4375C17.0625 15.2497 16.7398 16.0287 16.1655 16.603C15.5912 17.1773 14.8122 17.5 14 17.5Z" fill="#007AFF"/>
</svg>
