<svg width="40" height="40" viewBox="0 0 40 40" fill="none" xmlns="http://www.w3.org/2000/svg">
<g clip-path="url(#clip0_1494_10774)">
<path d="M20 13.3333C16.3167 13.3333 13.3333 16.3167 13.3333 20C13.3333 23.6833 16.3167 26.6667 20 26.6667C23.6833 26.6667 26.6667 23.6833 26.6667 20C26.6667 16.3167 23.6833 13.3333 20 13.3333ZM8.33333 25H5V35H15V31.6667H8.33333V25ZM8.33333 8.33333H15V5H5V15H8.33333V8.33333ZM35 5H25V8.33333H31.6667V15H35V5ZM31.6667 31.6667H25V35H35V25H31.6667V31.6667Z" fill="#5096F1"/>
</g>
<defs>
<clipPath id="clip0_1494_10774">
<rect width="40" height="40" fill="white"/>
</clipPath>
</defs>
</svg>
