<svg width="40" height="40" viewBox="0 0 40 40" fill="none" xmlns="http://www.w3.org/2000/svg">
<g clip-path="url(#clip0_1494_10769)">
<path d="M16.55 22.4999H23.45L20 13.2999L16.55 22.4999ZM33.3334 3.33325H6.66671C4.83337 3.33325 3.33337 4.83325 3.33337 6.66659V33.3333C3.33337 35.1666 4.83337 36.6666 6.66671 36.6666H33.3334C35.1667 36.6666 36.6667 35.1666 36.6667 33.3333V6.66659C36.6667 4.83325 35.1667 3.33325 33.3334 3.33325ZM26.1834 29.7999L24.6834 25.8333H15.2834L13.8 29.7833C13.5667 30.4166 12.9667 30.8333 12.2834 30.8333C11.15 30.8333 10.3667 29.6833 10.7834 28.6333L17.8667 10.6166C18.2334 9.73325 19.0667 9.16659 20 9.16659C20.9334 9.16659 21.7667 9.73325 22.1167 10.6166L29.2 28.6333C29.6167 29.6833 28.8334 30.8333 27.7 30.8333C27.0334 30.8333 26.4334 30.4166 26.1834 29.7999Z" fill="white"/>
</g>
<defs>
<clipPath id="clip0_1494_10769">
<rect width="40" height="40" fill="white"/>
</clipPath>
</defs>
</svg>
