<svg width="28" height="28" viewBox="0 0 28 28" fill="none" xmlns="http://www.w3.org/2000/svg">
<path d="M15.75 7.875V20.125C15.75 20.3571 15.6578 20.5796 15.4937 20.7437C15.3296 20.9078 15.1071 21 14.875 21C14.6429 21 14.4204 20.9078 14.2563 20.7437C14.0922 20.5796 14 20.3571 14 20.125V7.875C14 7.64294 14.0922 7.42038 14.2563 7.25628C14.4204 7.09219 14.6429 7 14.875 7C15.1071 7 15.3296 7.09219 15.4937 7.25628C15.6578 7.42038 15.75 7.64294 15.75 7.875ZM25.375 7H19.25C19.0179 7 18.7954 7.09219 18.6313 7.25628C18.4672 7.42038 18.375 7.64294 18.375 7.875V20.125C18.375 20.3571 18.4672 20.5796 18.6313 20.7437C18.7954 20.9078 19.0179 21 19.25 21C19.4821 21 19.7046 20.9078 19.8687 20.7437C20.0328 20.5796 20.125 20.3571 20.125 20.125V14.875H24.5C24.7321 14.875 24.9546 14.7828 25.1187 14.6187C25.2828 14.4546 25.375 14.2321 25.375 14C25.375 13.7679 25.2828 13.5454 25.1187 13.3813C24.9546 13.2172 24.7321 13.125 24.5 13.125H20.125V8.75H25.375C25.6071 8.75 25.8296 8.65781 25.9937 8.49372C26.1578 8.32962 26.25 8.10706 26.25 7.875C26.25 7.64294 26.1578 7.42038 25.9937 7.25628C25.8296 7.09219 25.6071 7 25.375 7ZM10.5 13.125H7.875C7.64294 13.125 7.42038 13.2172 7.25628 13.3813C7.09219 13.5454 7 13.7679 7 14C7 14.2321 7.09219 14.4546 7.25628 14.6187C7.42038 14.7828 7.64294 14.875 7.875 14.875H9.625V16.625C9.625 17.3212 9.34844 17.9889 8.85616 18.4812C8.36387 18.9734 7.69619 19.25 7 19.25C6.30381 19.25 5.63613 18.9734 5.14384 18.4812C4.65156 17.9889 4.375 17.3212 4.375 16.625V11.375C4.375 10.6788 4.65156 10.0111 5.14384 9.51884C5.63613 9.02656 6.30381 8.75 7 8.75C8.22391 8.75 9.36359 9.59656 9.65234 10.7188C9.71036 10.9436 9.85531 11.1361 10.0553 11.2541C10.2553 11.372 10.4939 11.4057 10.7188 11.3477C10.9436 11.2896 11.1361 11.1447 11.2541 10.9447C11.372 10.7447 11.4057 10.5061 11.3477 10.2812C10.8577 8.38031 9.03 7 7 7C5.83968 7 4.72688 7.46094 3.90641 8.28141C3.08594 9.10188 2.625 10.2147 2.625 11.375V16.625C2.625 17.7853 3.08594 18.8981 3.90641 19.7186C4.72688 20.5391 5.83968 21 7 21C8.16032 21 9.27312 20.5391 10.0936 19.7186C10.9141 18.8981 11.375 17.7853 11.375 16.625V14C11.375 13.7679 11.2828 13.5454 11.1187 13.3813C10.9546 13.2172 10.7321 13.125 10.5 13.125Z" fill="#007AFF"/>
</svg>
