<svg width="16" height="16" viewBox="0 0 16 16" fill="none" xmlns="http://www.w3.org/2000/svg">
<path d="M14.5369 6.6945H13.9999V6.66683H7.99992V9.3335H11.7676C11.2179 10.8858 9.74092 12.0002 7.99992 12.0002C5.79092 12.0002 3.99992 10.2092 3.99992 8.00016C3.99992 5.79116 5.79092 4.00016 7.99992 4.00016C9.01958 4.00016 9.94725 4.38483 10.6536 5.01316L12.5393 3.1275C11.3486 2.01783 9.75592 1.3335 7.99992 1.3335C4.31825 1.3335 1.33325 4.3185 1.33325 8.00016C1.33325 11.6818 4.31825 14.6668 7.99992 14.6668C11.6816 14.6668 14.6666 11.6818 14.6666 8.00016C14.6666 7.55316 14.6206 7.11683 14.5369 6.6945Z" fill="#FFC107"/>
<path d="M2.10205 4.89716L4.29238 6.5035C4.88505 5.03616 6.32038 4.00016 8.00005 4.00016C9.01972 4.00016 9.94738 4.38483 10.6537 5.01316L12.5394 3.1275C11.3487 2.01783 9.75605 1.3335 8.00005 1.3335C5.43938 1.3335 3.21872 2.77916 2.10205 4.89716Z" fill="#FF3D00"/>
<path d="M7.99994 14.6667C9.72194 14.6667 11.2866 14.0077 12.4696 12.936L10.4063 11.19C9.71446 11.7161 8.86909 12.0007 7.99994 12C6.26594 12 4.79361 10.8943 4.23894 9.35132L2.06494 11.0263C3.16827 13.1853 5.40894 14.6667 7.99994 14.6667Z" fill="#4CAF50"/>
<path d="M14.537 6.69417H14V6.6665H8V9.33317H11.7677C11.5047 10.072 11.0311 10.7176 10.4053 11.1902L10.4063 11.1895L12.4697 12.9355C12.3237 13.0682 14.6667 11.3332 14.6667 7.99984C14.6667 7.55284 14.6207 7.1165 14.537 6.69417Z" fill="#1976D2"/>
</svg>
