<svg width="28" height="28" viewBox="0 0 28 28" fill="none" xmlns="http://www.w3.org/2000/svg">
<path d="M27.5373 7.98438C27.3978 7.90959 27.2406 7.87405 27.0825 7.88156C26.9243 7.88908 26.7712 7.93935 26.6394 8.02703L22.75 10.6148V7.875C22.75 7.41087 22.5656 6.96575 22.2374 6.63756C21.9092 6.30937 21.4641 6.125 21 6.125H3.5C3.03587 6.125 2.59075 6.30937 2.26256 6.63756C1.93437 6.96575 1.75 7.41087 1.75 7.875V20.125C1.75 20.5891 1.93437 21.0342 2.26256 21.3624C2.59075 21.6906 3.03587 21.875 3.5 21.875H21C21.4641 21.875 21.9092 21.6906 22.2374 21.3624C22.5656 21.0342 22.75 20.5891 22.75 20.125V17.3906L26.6394 19.9839C26.7838 20.0777 26.9528 20.1268 27.125 20.125C27.3571 20.125 27.5796 20.0328 27.7437 19.8687C27.9078 19.7046 28 19.4821 28 19.25V8.75C27.9989 8.59256 27.9553 8.43834 27.8739 8.30359C27.7925 8.16885 27.6762 8.05856 27.5373 7.98438ZM21 20.125H3.5V7.875H21V20.125ZM26.25 17.6148L22.75 15.2819V12.7181L26.25 10.3906V17.6148Z" fill="#007AFF"/>
</svg>
