<svg width="40" height="40" viewBox="0 0 40 40" fill="none" xmlns="http://www.w3.org/2000/svg">
<g clip-path="url(#clip0_1494_10779)">
<path d="M35.0001 5H5.00008C3.16675 5 1.66675 6.5 1.66675 8.33333V31.6667C1.66675 33.5 3.16675 35 5.00008 35H35.0001C36.8334 35 38.3334 33.5 38.3334 31.6667V8.33333C38.3334 6.5 36.8334 5 35.0001 5ZM35.0001 31.6667H5.00008V8.33333H35.0001V31.6667ZM13.3334 25C13.3334 22.2333 15.5667 20 18.3334 20C18.9167 20 19.4834 20.1167 20.0001 20.3V10H28.3334V13.3333H23.3334V25.05C23.3001 27.7833 21.0834 30 18.3334 30C15.5667 30 13.3334 27.7667 13.3334 25Z" fill="#007AFF"/>
</g>
<defs>
<clipPath id="clip0_1494_10779">
<rect width="40" height="40" fill="white"/>
</clipPath>
</defs>
</svg>
